<?xml version="1.0" standalone="no"?>
<!DOCTYPE svg PUBLIC "-//W3C//DTD SVG 1.1//EN" "http://www.w3.org/Graphics/SVG/1.1/DTD/svg11.dtd" >
<svg xmlns="http://www.w3.org/2000/svg">
  <defs>
    <g id="plus"
       transform="matrix(0.07283542,0,0,0.07286962,0.02195793,0.01437015)">
      <path
        d="M 310.199,18.71 C 295.89258,2.9713963 274.1314,-1.2353535 253.78763,0.007 188.3404,0.1977641 122.87154,-0.37719927 57.438016,0.29926367 23.493591,2.6419605 -3.4715741,35.90908 0,69.541686 0.0485683,135.76286 -0.09721739,201.98621 0.07303247,268.20602 0.76062393,302.93029 34.102226,332.2024 68.605405,328.904 c 66.546545,-0.0489 133.095275,0.0979 199.640445,-0.0736 35.16023,-0.6103 64.23682,-34.73594 60.66515,-69.46114 -0.0487,-66.23214 0.0974,-132.46644 -0.0732,-198.697227 C 328.3417,44.899609 321.48925,29.70417 310.199,18.71 Z m -17.837,246.25 c 0.72547,17.28732 -16.64816,29.96201 -32.99269,27.408 -66.07136,-0.0831 -132.15013,0.16631 -198.216861,-0.1248 C 44.959643,291.24068 34.308899,274.70831 36.548,259.37831 36.631127,193.30766 36.381699,127.2296 36.672793,61.163572 37.673125,44.971009 54.20672,34.319816 69.535686,36.557 c 66.073364,0.08315 132.154144,-0.166357 198.222874,0.124838 16.19117,1.00226 26.8386,17.537927 24.60344,32.864848 0,65.137774 0,130.275544 0,195.413314 z"/>
      <path
        d="m 246.683,146.189 c -21.31767,0 -42.63533,0 -63.953,0 0,-21.31767 0,-42.63533 0,-63.953 -0.81629,-12.279717 -14.73909,-8.545367 -23.09122,-9.135 -11.5305,-2.497963 -14.93166,9.263129 -13.45178,18.43781 0,18.21706 0,36.43413 0,54.65119 -21.318,0 -42.636,0 -63.954,0 -12.27932,0.81289 -8.545459,14.73838 -9.135,23.08922 -2.497844,11.528 9.265466,14.92912 18.43781,13.44978 18.21706,0 36.43413,0 54.65119,0 0,21.31767 0,42.63533 0,63.953 0.81563,12.27507 14.74018,8.5381 23.08922,9.129 11.52771,2.49781 14.93538,-9.25718 13.45378,-18.43181 0,-18.2164 0,-36.43279 0,-54.64919 21.31767,0 42.63533,0 63.953,0 12.27466,-0.82016 8.53379,-14.73827 9.126,-23.08722 0.56231,-6.18716 -1.21014,-13.74146 -9.126,-13.45378 z"/>
    </g>
    <g id="minus"
       transform="matrix(0.07296807,0,0,0.07297117,0,-5.0969768e-4)">
      <path
        d="M 310.206,18.71 C 297.735,6.242 282.657,0.007 264.958,0.007 l -201.004,0 C 46.251,0.007 31.164,6.242 18.701,18.711 6.235,31.177 0,46.261 0,63.96 l 0,200.991 c 0,17.515 6.232,32.552 18.701,45.11 12.467,12.566 27.553,18.843 45.253,18.843 l 201.004,0 c 17.699,0 32.777,-6.276 45.248,-18.843 12.47,-12.559 18.705,-27.596 18.705,-45.11 l 0,-200.991 c 0,-17.699 -6.239,-32.783 -18.705,-45.25 z m -17.844,246.25 c 0,7.614 -2.673,14.089 -8.001,19.414 -5.324,5.332 -11.799,7.994 -19.41,7.994 l -200.997,0 c -7.614,0 -14.082,-2.662 -19.414,-7.994 -5.33,-5.325 -7.992,-11.8 -7.992,-19.414 l 0,-200.995 c 0,-7.613 2.662,-14.086 7.992,-19.414 5.327,-5.327 11.8,-7.994 19.414,-7.994 l 201.004,0 c 7.61,0 14.086,2.663 19.41,7.994 5.325,5.328 7.994,11.801 7.994,19.414 l 0,200.995 z"/>
      <path
        d="m 246.683,146.189 -164.454,0 c -2.664,0 -4.858,0.855 -6.567,2.568 -1.711,1.713 -2.568,3.903 -2.568,6.567 l 0,18.271 c 0,2.666 0.854,4.855 2.568,6.563 1.713,1.708 3.903,2.57 6.567,2.57 l 164.454,0 c 2.662,0 4.853,-0.862 6.563,-2.57 1.712,-1.708 2.563,-3.897 2.563,-6.563 l 0,-18.271 c 0,-2.664 -0.852,-4.857 -2.563,-6.567 -1.71,-1.709 -3.901,-2.568 -6.563,-2.568 z"/>
    </g>
    <g id="empty-square"
       transform="matrix(0.05959644,0,0,0.05961057,0.02114707,0.01534242)">
      <path
        d="M 377.87,24.126 C 359.67184,4.1373354 332.05923,-1.6161006 306.12477,0 228.71577,0.24267767 151.27898,-0.49095767 73.887754,0.37696875 30.489095,3.5095603 -4.2767399,45.937792 0.002,89.050116 0.24510502,168.73335 -0.48953682,248.44442 0.37896289,328.10988 3.5121573,371.50735 45.93578,406.27781 89.049116,401.999 c 79.682964,-0.24311 159.393754,0.49155 239.058924,-0.37697 43.39678,-3.13568 78.16764,-45.55969 73.88896,-88.67315 -0.24395,-79.68334 0.49325,-159.39466 -0.37828,-239.060126 C 400.09958,55.080852 391.31431,37.280893 377.87,24.126 Z m -12.422,295.645 c 1.01581,27.48467 -26.01597,49.19426 -52.50212,45.675 C 234.49943,365.30759 156.0372,365.72359 77.600668,365.23663 51.932019,363.46247 33.442306,337.77103 36.545,312.94888 36.683605,234.50188 36.267017,156.03905 36.75467,77.601996 38.537483,51.935322 64.224386,33.441606 89.049116,36.546 c 78.447094,0.138605 156.910014,-0.277983 235.347164,0.20967 25.66789,1.780891 44.15714,27.470808 41.05272,52.294446 -6.7e-4,76.906624 10e-4,153.815924 -0.001,230.720884 z"/>
      />
    </g>
    <g id="close"
       transform="matrix(0.04907975,0,0,0.04907975,0,2.25e-6)">
      <path
        d="M 417.4,71.6 C 371.2,25.4 309.8,0 244.5,0 179.2,0 117.8,25.4 71.6,71.6 25.4,117.8 0,179.2 0,244.5 0,309.8 25.4,371.2 71.6,417.4 117.8,463.6 179.2,489 244.5,489 309.8,489 371.2,463.6 417.4,417.4 463.6,371.2 489,309.8 489,244.5 489,179.2 463.6,117.8 417.4,71.6 Z M 244.5,462 C 124.6,462 27,364.4 27,244.5 27,124.6 124.6,27 244.5,27 364.4,27 462,124.6 462,244.5 462,364.4 364.4,462 244.5,462 Z"/>
      <path
        d="m 304.9,184.1 c -5.3,-5.3 -13.8,-5.3 -19.1,0 l -41.3,41.3 -41.3,-41.3 c -5.3,-5.3 -13.8,-5.3 -19.1,0 -5.3,5.3 -5.3,13.8 0,19.1 l 41.3,41.3 -41.3,41.3 c -5.3,5.3 -5.3,13.8 0,19.1 2.6,2.6 6.1,4 9.5,4 3.4,0 6.9,-1.3 9.5,-4 l 41.3,-41.3 41.3,41.3 c 2.6,2.6 6.1,4 9.5,4 3.4,0 6.9,-1.3 9.5,-4 5.3,-5.3 5.3,-13.8 0,-19.1 l -41.1,-41.3 41.3,-41.3 c 5.3,-5.3 5.3,-13.8 0,-19.1 z"/>
    </g>
    <g
      id="left-button"
      transform="scale(0.06,0.06)">
      <path
        d="M 199.997,0 C 89.72,0 0,89.72 0,200 0,310.28 89.72,400 199.997,400 310.279,400 400,310.28 400,200 400,89.72 310.279,0 199.997,0 Z m 0,373.77 C 104.186,373.77 26.231,295.817 26.231,200 c 0,-95.817 77.955,-173.77 173.766,-173.77 95.824,0 173.772,77.953 173.772,173.77 10e-4,95.816 -77.949,173.77 -173.772,173.77 z"/>
      <path
        d="m 241.559,109.851 c -5.123,-5.124 -13.43,-5.124 -18.547,0 l -80.875,80.873 c -2.46,2.459 -3.843,5.796 -3.843,9.273 0,3.478 1.383,6.813 3.843,9.272 l 80.875,80.875 c 2.562,2.562 5.918,3.844 9.273,3.844 3.354,0 6.719,-1.281 9.272,-3.844 5.123,-5.119 5.123,-13.426 0,-18.545 l -71.597,-71.604 71.597,-71.6 c 5.125,-5.118 5.125,-13.424 0.002,-18.544 z"/>
    </g>
  </defs>
</svg>